<svg width="51" height="36" viewBox="0 0 51 36" fill="none" xmlns="http://www.w3.org/2000/svg">
<g opacity="0.6">
<path d="M38.903 31.0838C38.9119 31.0193 38.9498 30.9626 39.006 30.9299L39.8182 30.4561C39.8299 30.4492 39.8422 30.4436 39.855 30.4391C39.9216 30.4158 40.0148 30.4059 40.1669 30.4059C40.3272 30.4059 40.5356 30.4175 40.7373 30.4285C40.9357 30.4393 41.141 30.4506 41.2933 30.4506C41.435 30.4506 41.4741 30.4406 41.4751 30.4405C46.0677 28.7304 46.8141 24.3564 46.8211 24.3125C46.8339 24.2323 46.8915 24.1664 46.9694 24.143C47.0473 24.1195 47.1315 24.143 47.1862 24.2028C47.285 24.3107 49.6102 26.8759 50.0801 29.3818C50.5396 31.832 48.9271 33.9695 46.0676 34.7009C45.8176 34.7649 45.5504 34.7972 45.2737 34.7972C42.4152 34.7972 39.1003 31.4042 38.9607 31.2597C38.9154 31.213 38.8942 31.1481 38.903 31.0838Z" fill="#42413A"/>
<path d="M9.74447 26.1051L7.98488 22.9924H24.5638L22.6012 25.9021L25.9172 26.1048V33.3458H5.34579V26.1051H9.74447Z" fill="#CE9905"/>
<path d="M4.33068 26.1049H29.3687V33.3452H4.33068V26.1049Z" fill="#E8B30A"/>
<path d="M43.1795 11.2738L46.0142 4.27325C46.048 4.18973 46.1268 4.13626 46.2213 4.14134C46.3114 4.14599 46.3886 4.20723 46.4136 4.29385L47.9655 9.655C47.9717 9.67616 47.9744 9.69831 47.9738 9.72032L47.6492 20.2345L50.0576 24.6503C50.0868 24.7038 50.0915 24.7671 50.0707 24.8242C50.0499 24.8814 50.0053 24.9268 49.9487 24.9488L46.2948 26.3698C46.27 26.3794 46.244 26.3842 46.218 26.3842C46.1829 26.3842 46.1479 26.3754 46.1163 26.3581C46.0614 26.328 46.0228 26.2753 46.0105 26.214L44.9949 21.1363L43.1678 11.392C43.1602 11.3524 43.1643 11.3113 43.1795 11.2738Z" fill="#E8B30A"/>
<path d="M6.15878 1.78202C6.16823 1.58591 6.27164 1.40646 6.43671 1.30022C7.77404 0.437499 9.57496 0 11.7894 0C15.4569 0 18.9941 1.18467 19.1428 1.23518C19.318 1.29444 19.4568 1.43044 19.5198 1.60468L24.6628 15.8153C24.737 16.0201 24.6961 16.2491 24.5553 16.4156C24.4384 16.5537 24.2679 16.6314 24.0903 16.6314C24.0542 16.6314 24.0176 16.6283 23.9812 16.6215L21.5419 16.1781C21.3197 16.1376 21.1376 15.9769 21.0696 15.7609L17.4032 4.05726C16.6528 3.83266 14.5615 3.26903 12.4666 3.26903C11.1497 3.26903 10.0737 3.48927 9.26161 3.92422L9.02107 13.1876C9.0167 13.3652 8.93459 13.5321 8.79661 13.6444C8.65863 13.7562 8.48072 13.8033 8.30338 13.7708L6.11659 13.3734C5.81608 13.3189 5.60234 13.0498 5.61744 12.7444L6.15878 1.78202Z" fill="#42413A"/>
<path d="M8.26143 3.34634L8.44173 3.23023C9.44554 2.58252 10.8001 2.25407 12.4665 2.25407C15.2361 2.25407 17.9071 3.14882 18.0197 3.18677L18.2154 3.25322L22.2395 16.0986L7.99761 13.509L8.26143 3.34634Z" fill="#3ADDD1"/>
<path d="M16.9358 4.28214C18.5583 7.03325 19.2637 11.4774 19.2637 11.4774L13.1266 3.22401C14.8196 3.29456 16.4769 3.50392 16.9358 4.28214Z" fill="#B0F1ED"/>
<path d="M8.41241 13.1718L21.6511 15.5788L21.925 16.4529L8.39096 13.9923L8.41241 13.1718Z" fill="#CE9905"/>
<path d="M4.67094 11.7978C4.72046 11.7574 4.7855 11.7419 4.84786 11.755L24.0529 15.7982L32.508 10.7653C32.5276 10.7536 32.5489 10.7453 32.5711 10.7405L45.5636 7.89838C45.6358 7.88272 45.7111 7.90572 45.7621 7.95933C45.8131 8.01294 45.8323 8.08941 45.8128 8.1608L45.2039 10.3939C45.1808 10.4785 45.108 10.54 45.0208 10.5488L43.0235 10.7485L32.7665 15.173L28.5382 22.824C28.5061 22.8821 28.4486 22.9217 28.3829 22.9311L24.7937 23.7229C24.7644 23.7376 24.7319 23.7452 24.6991 23.7452H8.25558C8.22792 23.7452 8.20055 23.7397 8.17502 23.7293L4.72385 22.3083C4.64456 22.2757 4.59278 22.1984 4.59278 22.1126V11.9623C4.59278 11.8984 4.62156 11.838 4.67094 11.7978Z" fill="#E8B30A"/>
<path d="M29.2332 35.5117C26.6171 35.5117 24.4962 33.3909 24.4962 30.7747C24.4962 28.1585 26.6171 26.0377 29.2332 26.0377C31.8494 26.0377 33.9702 28.1585 33.9702 30.7747C33.9702 33.3909 31.8494 35.5117 29.2332 35.5117Z" fill="#42413A"/>
<path d="M29.2332 33.3459C27.8132 33.3459 26.662 32.1948 26.662 30.7747C26.662 29.3547 27.8132 28.2035 29.2332 28.2035C30.6533 28.2035 31.8044 29.3547 31.8044 30.7747C31.8044 32.1948 30.6533 33.3459 29.2332 33.3459Z" fill="#8E8D7C"/>
<path d="M4.73712 35.5117C2.12094 35.5117 0.000114441 33.3909 0.000114441 30.7747C0.000114441 28.1585 2.12094 26.0377 4.73712 26.0377C7.35329 26.0377 9.47412 28.1585 9.47412 30.7747C9.47412 33.3909 7.35329 35.5117 4.73712 35.5117Z" fill="#42413A"/>
<path d="M4.73687 33.3459C3.31681 33.3459 2.16563 32.1948 2.16563 30.7747C2.16563 29.3547 3.31681 28.2035 4.73687 28.2035C6.15692 28.2035 7.30811 29.3547 7.30811 30.7747C7.30811 32.1948 6.15692 33.3459 4.73687 33.3459Z" fill="#8E8D7C"/>
</g>
</svg>
