<svg width="24" height="24" viewBox="0 0 24 24" fill="none" xmlns="http://www.w3.org/2000/svg">
<g clip-path="url(#clip0)">
<path d="M17.9557 7.37945C17.2385 7.09196 17.0313 6.91811 17.0313 6.60417C17.0313 6.35294 17.2216 6.05943 17.7581 6.05943C18.2326 6.05943 18.5965 6.24654 18.5998 6.24816C18.6381 6.26859 18.681 6.27948 18.7236 6.27948C18.8274 6.27948 18.9193 6.21664 18.9573 6.11937L19.0877 5.78615C19.1331 5.66473 19.0642 5.55893 18.9764 5.52098C18.6843 5.39381 18.1133 5.29539 18.1075 5.29437C18.0983 5.29275 18.0663 5.28592 18.0663 5.24851L18.0644 4.76512C18.0644 4.61955 17.9429 4.50104 17.7937 4.50104H17.5598C17.4107 4.50104 17.2892 4.61948 17.2892 4.76519L17.2898 5.2734C17.2898 5.31237 17.2476 5.32928 17.2322 5.33286C16.5115 5.50454 16.061 6.03251 16.061 6.69847C16.061 7.52867 16.7473 7.90383 17.4882 8.18543C18.0806 8.41799 18.3222 8.6538 18.3222 8.99967C18.3222 9.37604 17.98 9.63891 17.4897 9.63891C17.0711 9.63891 16.5045 9.37354 16.4989 9.37084C16.4626 9.35365 16.4242 9.34499 16.3847 9.34499C16.2769 9.34499 16.183 9.4102 16.1454 9.5112L16.021 9.8482C15.9767 9.97402 16.0448 10.0762 16.132 10.1216C16.48 10.3028 17.1533 10.409 17.1833 10.4137C17.1913 10.4149 17.2323 10.4293 17.2323 10.4667V10.9727C17.2323 11.1183 17.3539 11.2368 17.5032 11.2368H17.7448C17.8942 11.2368 18.0157 11.1184 18.0157 10.9727V10.4402C18.0157 10.3904 18.0525 10.386 18.06 10.3842C18.8279 10.2117 19.3008 9.64994 19.3008 8.94454C19.3006 8.22 18.8983 7.75183 17.9557 7.37945Z" fill="#613EEA"/>
<path d="M17.6539 1.52258C14.1488 1.52258 11.3076 4.36399 11.3076 7.86886C11.3076 11.3738 14.1488 14.2153 17.6539 14.2153C21.1588 14.2153 24.0001 11.3738 24.0001 7.86886C24.0001 4.36399 21.1588 1.52258 17.6539 1.52258ZM17.6539 12.7445C14.9611 12.7445 12.7783 10.5615 12.7783 7.86893C12.7783 5.17634 14.9611 2.99345 17.6539 2.99345C20.3466 2.99345 22.5292 5.17634 22.5292 7.86893C22.5292 10.5615 20.3466 12.7445 17.6539 12.7445Z" fill="#613EEA"/>
<path d="M22.7105 17.2906C21.361 18.0354 19.5049 18.7241 17.6539 19.0144C16.007 19.2727 12.9088 18.6498 12.9088 17.9142C12.9088 17.6354 15.6261 18.601 17.2698 18.1625C18.5302 17.8262 18.3513 16.6472 17.6657 16.4917C16.9841 16.337 12.9909 14.8741 11.2852 14.8236C10.4818 14.7999 8.49809 15.1031 7.53821 15.2594C7.20939 15.3129 7.00321 15.307 6.98265 15.6217C6.88713 17.0842 6.69888 20.0749 6.59626 21.6371C6.5941 21.6701 6.63996 22.114 7.00625 21.8016C7.40718 21.4597 7.96951 21.0808 8.48963 21.1987C9.30563 21.3839 16.3651 22.6772 17.3388 22.4508C18.7318 22.127 22.6752 19.7901 23.4312 19.0637C24.6031 17.9377 23.6921 16.7488 22.7105 17.2906Z" fill="#613EEA"/>
<path d="M5.03453 15.2024L1.33627 15.0202C1.05074 15.0061 0.759128 15.2213 0.688169 15.4982L0.0157149 21.6034C-0.0551766 21.8804 0.120564 22.116 0.406227 22.1271L4.50481 22.1266C4.79054 22.1377 5.04204 21.9135 5.06396 21.6284L5.51406 15.7462C5.53585 15.4612 5.32006 15.2165 5.03453 15.2024ZM2.85733 21.3178C2.29256 21.3178 1.83481 20.86 1.83481 20.2953C1.83481 19.7305 2.29263 19.2728 2.85733 19.2728C3.42202 19.2728 3.87984 19.7306 3.87984 20.2953C3.87984 20.8601 3.42209 21.3178 2.85733 21.3178Z" fill="#613EEA"/>
</g>
<defs>
<clipPath id="clip0">
<rect width="24" height="24" fill="white"/>
</clipPath>
</defs>
</svg>
