<svg width="42" height="50" viewBox="0 0 42 50" fill="none" xmlns="http://www.w3.org/2000/svg">
<path d="M12.417 31.0353C14.1641 29.9104 13.9687 26.5624 13.9687 25.7812H28.0312C28.0312 26.5624 27.8146 29.9104 29.5616 31.0353L21 40.6249L12.417 31.0353Z" fill="#FFD7A3"/>
<path d="M26.4687 34.375L29.5616 31.0353C27.8145 29.9105 28.0313 26.5624 28.0313 25.7812H13.9688C14.9777 28.682 21.6511 33.6588 26.4687 34.375Z" fill="#FDC88E"/>
<path d="M31.9374 15.6249C31.9374 21.8813 28.3349 29.6874 20.9999 29.6874C13.665 29.6874 10.0625 21.8813 10.0625 15.6249C10.0625 9.3686 14.9594 7.03114 20.9999 7.03114C27.0404 7.03114 31.9374 9.3686 31.9374 15.6249Z" fill="#FFE1B2"/>
<path d="M38.9687 50C40.2632 50 41.3125 48.9507 41.3125 47.6563V40.1216C41.3125 36.684 38.6338 33.0142 35.3599 31.9667L30.4722 30.4028C27.8425 32.4135 24.0845 35.1564 21.0001 35.1564C17.9156 35.1564 14.1576 32.4135 11.5279 30.4028L6.64014 31.9666C3.36618 33.0141 0.6875 36.6839 0.6875 40.1215V47.6563C0.6875 48.9507 1.73679 50 3.03125 50H38.9687Z" fill="#545465"/>
<path d="M7.71875 31.6215V49.9999H34.2812V31.6215L31.1563 30.6215V42.2099C31.1563 42.5675 30.9189 42.8836 30.5718 42.9691C27.9272 43.6204 24.6099 44.0103 21 44.0103C17.3902 44.0103 14.0729 43.6204 11.4283 42.9691C11.081 42.8836 10.8438 42.5675 10.8438 42.2099V30.6216L7.71875 31.6215Z" fill="#0087A1"/>
<path d="M21 35.1562L17.7403 38.4159C17.4008 38.7553 16.8384 38.7112 16.556 38.3229L10.8438 30.4686L12.6633 28.649C12.9572 28.3551 13.4296 28.3428 13.7384 28.6207L21 35.1562Z" fill="#393950"/>
<path d="M21 35.1562L24.2597 38.4159C24.5991 38.7553 25.1616 38.7112 25.444 38.3229L31.1562 30.4686L29.3366 28.649C29.0428 28.3551 28.5704 28.3428 28.2616 28.6207L21 35.1562Z" fill="#393950"/>
<path d="M21 42.9686C21.4314 42.9686 21.7812 42.6189 21.7812 42.1874C21.7812 41.756 21.4314 41.4062 21 41.4062C20.5685 41.4062 20.2188 41.756 20.2188 42.1874C20.2188 42.6189 20.5685 42.9686 21 42.9686Z" fill="#393950"/>
<path d="M21 39.0625C21.4314 39.0625 21.7812 38.7127 21.7812 38.2813C21.7812 37.8498 21.4314 37.5 21 37.5C20.5685 37.5 20.2188 37.8498 20.2188 38.2813C20.2188 38.7127 20.5685 39.0625 21 39.0625Z" fill="#393950"/>
<path d="M10.4383 16.4063C9.2672 16.1133 8.5 16.7393 8.5 17.9688C8.5 19.5964 10.0749 23.584 11.7305 21.0938C13.3861 18.6035 10.4383 16.4063 10.4383 16.4063Z" fill="#FFE1B2"/>
<path d="M31.3842 16.4063C32.6626 16.1133 33.5 16.7393 33.5 17.9688C33.5 19.5964 31.781 23.584 29.9738 21.0938C28.1665 18.6035 31.3842 16.4063 31.3842 16.4063Z" fill="#FFE1B2"/>
<path d="M12.4062 13.1348C12.0807 13.9812 11.625 17.8223 11.625 17.8223L10.0624 17.0411L9.62305 11.8653L12.4062 13.1348Z" fill="#7E5449"/>
<path d="M29.5938 13.1348C29.9193 13.9812 30.375 17.8223 30.375 17.8223L31.9375 17.0411L32.3769 11.8653L29.5938 13.1348Z" fill="#7E5449"/>
<path d="M29.1411 2.47661L23.1865 0.37446C21.7725 -0.124779 20.2274 -0.124779 18.8134 0.37446L12.859 2.47661C10.9185 3.16177 9.62305 4.97886 9.62305 7.01582V14.0624H32.3769V7.01582C32.3769 4.97886 31.0816 3.16177 29.1411 2.47661Z" fill="#0087A1"/>
<path d="M21.0001 10.1562C16.254 10.1562 9.15112 11.905 9.15112 14.0625H32.849C32.8491 11.9052 25.7464 10.1562 21.0001 10.1562Z" fill="#393950"/>
<path d="M24.1249 4.6875H23.2002C22.8773 3.77926 22.019 3.12496 21 3.12496C19.9809 3.12496 19.1226 3.77926 18.7997 4.6875H17.875V6.25005H18.7997C19.1226 7.15829 19.9809 7.81259 21 7.81259C22.019 7.81259 22.8773 7.15829 23.2002 6.25005H24.1249V4.6875Z" fill="#FFD267"/>
</svg>
