<svg width="40" height="45" viewBox="0 0 40 45" fill="none" xmlns="http://www.w3.org/2000/svg">
<g clip-path="url(#clip0)">
<path d="M16.7991 1.03975C13.8217 2.77551 8.01289 6.12245 2.04082 9.54672L0.064451 10.6767L0.0515617 22.1998L0.0429688 33.7186L2.52202 35.1493C6.31579 37.3319 9.98067 39.45 15.4544 42.6122C17.1343 43.5875 18.5177 44.3824 18.5263 44.3824C18.5349 44.3824 18.5392 38.8614 18.5435 32.116L18.5478 19.8496H13.9979H9.45221V22.2127V24.5757H11.6434H13.8346V30.3588C13.8346 35.9656 13.8303 36.1418 13.7573 36.1203C13.6627 36.0988 10.1611 34.101 6.97315 32.2535L4.81204 31.0032V22.217L4.81633 13.4264L6.6724 12.3523C10.4189 10.1912 13.7444 8.29216 13.7916 8.29216C13.8217 8.29216 13.8346 9.36627 13.8346 11.7508V15.2095L16.1891 15.2009L18.5392 15.188L18.5521 7.61332C18.5564 3.45006 18.5478 0.0429668 18.5306 0.047266C18.5091 0.047266 17.7315 0.494097 16.7991 1.03975Z" fill="#613EEA"/>
<path d="M21.4823 22.2384V44.3867L21.6885 44.275C21.8002 44.2148 22.8572 43.6004 24.0387 42.9087L26.1869 41.6541L26.1998 24.9495C26.2041 15.7637 26.2213 8.24918 26.2342 8.24918C26.2471 8.24918 26.7326 8.54134 27.3083 8.90224L28.3609 9.5553L28.348 24.9452C28.3394 33.4092 28.348 40.3523 28.3652 40.3652C28.3953 40.3996 28.8593 40.1375 31.4845 38.6122L33.0398 37.7057V24.971C33.0398 12.8679 33.0441 12.2406 33.1171 12.2535C33.1558 12.2621 33.637 12.5242 34.1826 12.8335L35.1751 13.4049L35.2009 15.6262C35.2181 16.8507 35.231 22.0236 35.231 27.1192C35.231 34.9903 35.2396 36.391 35.2911 36.391C35.3212 36.391 36.3824 35.7938 37.6413 35.0634L39.9356 33.7358V22.2084V10.681L39.2911 10.3115C38.9388 10.1052 37.1386 9.0698 35.2954 8.01287C32.0473 6.14821 25.5296 2.38881 22.8615 0.842087C22.144 0.425331 21.5382 0.0859108 21.521 0.0859108C21.4995 0.0859108 21.4823 10.0537 21.4823 22.2384Z" fill="#613EEA"/>
</g>
<defs>
<clipPath id="clip0">
<rect width="40" height="44.4253" fill="white"/>
</clipPath>
</defs>
</svg>
