<svg width="300" height="234" viewBox="0 0 300 234" fill="none" xmlns="http://www.w3.org/2000/svg">
<g clip-path="url(#clip0)">
<path d="M38.0644 135.151L37.5496 135.035C43.2899 109.507 57.7159 86.3257 78.17 69.7605C93.634 57.2561 112.026 48.8932 131.614 45.459C151.203 42.0248 171.343 43.6325 190.138 50.1306C208.934 56.6287 225.766 67.8034 239.051 82.6026C252.335 97.4018 261.635 115.338 266.074 134.724L265.559 134.841C253.408 81.4875 206.648 44.2248 151.847 44.2248C97.7642 44.2248 49.9118 82.4648 38.0644 135.151Z" fill="#3F3D56"/>
<path d="M237.37 72.7784C245.285 72.7784 251.701 66.3621 251.701 58.4472C251.701 50.5323 245.285 44.116 237.37 44.116C229.455 44.116 223.039 50.5323 223.039 58.4472C223.039 66.3621 229.455 72.7784 237.37 72.7784Z" fill="#FF6584"/>
<path d="M231.926 115.744H231.398V136.588H231.926V115.744Z" fill="#3F3D56"/>
<path d="M236.796 118.4C236.83 125.689 231.702 131.621 231.702 131.621C231.702 131.621 226.519 125.736 226.486 118.448C226.452 111.159 231.58 105.226 231.58 105.226C231.58 105.226 236.763 111.111 236.796 118.4Z" fill="#6C63FF"/>
<path opacity="0.1" d="M236.796 118.4C236.83 125.689 231.702 131.621 231.702 131.621C231.702 131.621 226.519 125.736 226.486 118.448C226.452 111.159 231.58 105.226 231.58 105.226C231.58 105.226 236.763 111.111 236.796 118.4Z" fill="black"/>
<path opacity="0.4" d="M132.196 74.3013C136.749 74.3013 140.44 70.61 140.44 66.0565C140.44 61.503 136.749 57.8117 132.196 57.8117C127.642 57.8117 123.951 61.503 123.951 66.0565C123.951 70.61 127.642 74.3013 132.196 74.3013Z" fill="#6C63FF"/>
<path opacity="0.4" d="M116.937 75.778C120.131 75.778 122.72 73.1886 122.72 69.9943C122.72 66.8001 120.131 64.2106 116.937 64.2106C113.742 64.2106 111.153 66.8001 111.153 69.9943C111.153 73.1886 113.742 75.778 116.937 75.778Z" fill="#6C63FF"/>
<path opacity="0.4" d="M54.9313 92.4007C58.1256 92.4007 60.715 89.8113 60.715 86.617C60.715 83.4228 58.1256 80.8333 54.9313 80.8333C51.7371 80.8333 49.1476 83.4228 49.1476 86.617C49.1476 89.8113 51.7371 92.4007 54.9313 92.4007Z" fill="#6C63FF"/>
<path opacity="0.4" d="M225.94 73.623C230.493 73.623 234.185 69.9317 234.185 65.3782C234.185 60.8247 230.493 57.1334 225.94 57.1334C221.386 57.1334 217.695 60.8247 217.695 65.3782C217.695 69.9317 221.386 73.623 225.94 73.623Z" fill="#6C63FF"/>
<path d="M14.9421 134.27C15.3891 135.923 16.92 136.946 16.92 136.946C16.92 136.946 17.7262 135.29 17.2793 133.638C16.8323 131.986 15.3014 130.963 15.3014 130.963C15.3014 130.963 14.4952 132.618 14.9421 134.27Z" fill="#3F3D56"/>
<path d="M15.5989 133.915C16.8253 135.109 16.9751 136.944 16.9751 136.944C16.9751 136.944 15.1365 136.844 13.91 135.65C12.6836 134.456 12.5338 132.621 12.5338 132.621C12.5338 132.621 14.3724 132.721 15.5989 133.915Z" fill="#6C63FF"/>
<path d="M176.42 134.27C176.867 135.923 178.398 136.946 178.398 136.946C178.398 136.946 179.204 135.29 178.757 133.638C178.31 131.986 176.779 130.963 176.779 130.963C176.779 130.963 175.973 132.618 176.42 134.27Z" fill="#3F3D56"/>
<path d="M177.076 133.915C178.303 135.109 178.453 136.944 178.453 136.944C178.453 136.944 176.614 136.844 175.388 135.65C174.161 134.456 174.011 132.621 174.011 132.621C174.011 132.621 175.85 132.721 177.076 133.915Z" fill="#6C63FF"/>
<path d="M17.9781 121.851L16.8865 120.032L27.0749 111.299H53.2739V113.846L43.8132 124.034L32.8968 126.217L17.9781 121.851Z" fill="#3F3D56"/>
<path d="M57.7836 116.423V110.73H54.3535V112.526L53.2739 111.299L44.5409 120.032L43.0852 121.487L41.2659 128.765L44.5409 136.77H61.2789V120.396L57.7836 116.423Z" fill="#CCCCCC"/>
<path d="M44.5408 120.032H16.8865V136.77H44.5408V120.032Z" fill="#F2F2F2"/>
<path d="M40.7202 125.308H34.8982V130.402H40.7202V125.308Z" fill="#3F3D56"/>
<path d="M32.533 125.126H27.4388V136.77H32.533V125.126Z" fill="#CCCCCC"/>
<path d="M21.6169 126.945V125.126H19.4338V126.945H21.4348H21.6169Z" fill="#3F3D56"/>
<path d="M21.4348 128.401H19.4338V130.22H21.6169V128.401H21.4348Z" fill="#3F3D56"/>
<path d="M25.2556 125.126H23.0724V126.945H25.2556V125.126Z" fill="#3F3D56"/>
<path d="M25.2556 128.401H23.0724V130.22H25.2556V128.401Z" fill="#3F3D56"/>
<path d="M52.3641 127.127V125.308H50.1807V127.127H52.1821H52.3641Z" fill="#3F3D56"/>
<path d="M52.1821 128.583H50.1807V130.402H52.3641V128.583H52.1821Z" fill="#3F3D56"/>
<path d="M56.0028 125.308H53.8196V127.127H56.0028V125.308Z" fill="#3F3D56"/>
<path d="M56.0028 128.583H53.8196V130.402H56.0028V128.583Z" fill="#3F3D56"/>
<path d="M123.255 121.851L122.164 120.032L132.352 111.299H158.551V113.846L149.09 124.034L138.174 126.217L123.255 121.851Z" fill="#3F3D56"/>
<path d="M163.061 116.423V110.73H159.631V112.526L158.551 111.299L149.818 120.032L148.362 121.487L146.543 128.765L149.818 136.77H166.556V120.396L163.061 116.423Z" fill="#CCCCCC"/>
<path d="M149.818 120.032H122.164V136.77H149.818V120.032Z" fill="#F2F2F2"/>
<path d="M145.997 125.308H140.175V130.402H145.997V125.308Z" fill="#3F3D56"/>
<path d="M137.81 125.126H132.716V136.77H137.81V125.126Z" fill="#CCCCCC"/>
<path d="M126.894 126.945V125.126H124.711V126.945H126.712H126.894Z" fill="#3F3D56"/>
<path d="M126.712 128.401H124.711V130.22H126.894V128.401H126.712Z" fill="#3F3D56"/>
<path d="M130.533 125.126H128.349V126.945H130.533V125.126Z" fill="#3F3D56"/>
<path d="M130.533 128.401H128.349V130.22H130.533V128.401Z" fill="#3F3D56"/>
<path d="M157.641 127.127V125.308H155.458V127.127H157.459H157.641Z" fill="#3F3D56"/>
<path d="M157.459 128.583H155.458V130.402H157.641V128.583H157.459Z" fill="#3F3D56"/>
<path d="M161.28 125.308H159.097V127.127H161.28V125.308Z" fill="#3F3D56"/>
<path d="M161.28 128.583H159.097V130.402H161.28V128.583Z" fill="#3F3D56"/>
<path d="M74.0145 91.2858L72.1953 89.8301L82.3836 80.7333H108.218V88.7385L91.4805 100.019L74.0145 91.2858Z" fill="#3F3D56"/>
<path d="M112.929 85.8362V80.9151H109.499V82.1203L108.218 80.7333L99.8493 89.8301L96.5747 92.0135L91.4968 129.112L99.1546 136.77H116.951V90.194L112.929 85.8362Z" fill="#CCCCCC"/>
<path d="M99.8494 89.8302H72.1951V136.77H99.8494V89.8302Z" fill="#F2F2F2"/>
<path d="M88.0236 125.308H82.9294V136.77H88.0236V125.308Z" fill="#CCCCCC"/>
<path d="M77.4712 128.583V126.763H75.2881V128.583H77.2894H77.4712Z" fill="#3F3D56"/>
<path d="M77.2894 130.038H75.2881V131.858H77.4712V130.038H77.2894Z" fill="#3F3D56"/>
<path d="M81.11 126.763H78.9268V128.583H81.11V126.763Z" fill="#3F3D56"/>
<path d="M81.11 130.038H78.9268V131.857H81.11V130.038Z" fill="#3F3D56"/>
<path d="M92.3899 128.583V126.763H90.2069V128.583H92.2082H92.3899Z" fill="#3F3D56"/>
<path d="M92.2082 130.038H90.2069V131.858H92.3899V130.038H92.2082Z" fill="#3F3D56"/>
<path d="M96.0288 126.763H93.8456V128.583H96.0288V126.763Z" fill="#3F3D56"/>
<path d="M96.0288 130.038H93.8456V131.857H96.0288V130.038Z" fill="#3F3D56"/>
<path d="M107.673 92.1953V90.376H105.489V92.1953H107.491H107.673Z" fill="#3F3D56"/>
<path d="M107.491 93.6509H105.489V95.4702H107.673V93.6509H107.491Z" fill="#3F3D56"/>
<path d="M111.311 90.376H109.128V92.1954H111.311V90.376Z" fill="#3F3D56"/>
<path d="M111.311 93.6509H109.128V95.4702H111.311V93.6509Z" fill="#3F3D56"/>
<path d="M107.673 102.384V100.564H105.489V102.384H107.491H107.673Z" fill="#3F3D56"/>
<path d="M107.491 103.839H105.489V105.659H107.673V103.839H107.491Z" fill="#3F3D56"/>
<path d="M111.311 100.564H109.128V102.384H111.311V100.564Z" fill="#3F3D56"/>
<path d="M111.311 103.839H109.128V105.659H111.311V103.839Z" fill="#3F3D56"/>
<path d="M107.673 112.572V110.753H105.489V112.572H107.491H107.673Z" fill="#3F3D56"/>
<path d="M107.491 114.028H105.489V115.847H107.673V114.028H107.491Z" fill="#3F3D56"/>
<path d="M111.311 110.753H109.128V112.572H111.311V110.753Z" fill="#3F3D56"/>
<path d="M111.311 114.028H109.128V115.847H111.311V114.028Z" fill="#3F3D56"/>
<path d="M107.673 122.761V120.941H105.489V122.761H107.491H107.673Z" fill="#3F3D56"/>
<path d="M107.491 124.216H105.489V126.035H107.673V124.216H107.491Z" fill="#3F3D56"/>
<path d="M111.311 120.941H109.128V122.761H111.311V120.941Z" fill="#3F3D56"/>
<path d="M111.311 124.216H109.128V126.035H111.311V124.216Z" fill="#3F3D56"/>
<path d="M96.3927 92.1954H75.2881V96.5618H96.3927V92.1954Z" fill="#3F3D56"/>
<path d="M96.3927 100.928H75.2881V105.295H96.3927V100.928Z" fill="#3F3D56"/>
<path d="M96.3927 109.661H75.2881V114.028H96.3927V109.661Z" fill="#3F3D56"/>
<path d="M96.3927 118.394H75.2881V122.761H96.3927V118.394Z" fill="#3F3D56"/>
<path d="M180.347 91.2858L178.528 89.8301L188.716 80.7333H214.551V88.7385L197.813 100.019L180.347 91.2858Z" fill="#3F3D56"/>
<path d="M219.261 85.8362V80.9151H215.831V82.1203L214.551 80.7333L206.182 89.8301L202.907 92.0135L197.829 129.112L205.487 136.77H223.284V90.194L219.261 85.8362Z" fill="#CCCCCC"/>
<path d="M206.182 89.8302H178.528V136.77H206.182V89.8302Z" fill="#F2F2F2"/>
<path d="M194.356 125.308H189.262V136.77H194.356V125.308Z" fill="#CCCCCC"/>
<path d="M183.804 128.583V126.763H181.621V128.583H183.622H183.804Z" fill="#3F3D56"/>
<path d="M183.622 130.038H181.621V131.858H183.804V130.038H183.622Z" fill="#3F3D56"/>
<path d="M187.442 126.763H185.259V128.583H187.442V126.763Z" fill="#3F3D56"/>
<path d="M187.442 130.038H185.259V131.857H187.442V130.038Z" fill="#3F3D56"/>
<path d="M198.722 128.583V126.763H196.539V128.583H198.541H198.722Z" fill="#3F3D56"/>
<path d="M198.541 130.038H196.539V131.858H198.722V130.038H198.541Z" fill="#3F3D56"/>
<path d="M202.361 126.763H200.178V128.583H202.361V126.763Z" fill="#3F3D56"/>
<path d="M202.361 130.038H200.178V131.857H202.361V130.038Z" fill="#3F3D56"/>
<path d="M214.005 92.1953V90.376H211.822V92.1953H213.823H214.005Z" fill="#3F3D56"/>
<path d="M213.823 93.6509H211.822V95.4702H214.005V93.6509H213.823Z" fill="#3F3D56"/>
<path d="M217.644 90.376H215.461V92.1954H217.644V90.376Z" fill="#3F3D56"/>
<path d="M217.644 93.6509H215.461V95.4702H217.644V93.6509Z" fill="#3F3D56"/>
<path d="M214.005 102.384V100.564H211.822V102.384H213.823H214.005Z" fill="#3F3D56"/>
<path d="M213.823 103.839H211.822V105.659H214.005V103.839H213.823Z" fill="#3F3D56"/>
<path d="M217.644 100.564H215.461V102.384H217.644V100.564Z" fill="#3F3D56"/>
<path d="M217.644 103.839H215.461V105.659H217.644V103.839Z" fill="#3F3D56"/>
<path d="M214.005 112.572V110.753H211.822V112.572H213.823H214.005Z" fill="#3F3D56"/>
<path d="M213.823 114.028H211.822V115.847H214.005V114.028H213.823Z" fill="#3F3D56"/>
<path d="M217.644 110.753H215.461V112.572H217.644V110.753Z" fill="#3F3D56"/>
<path d="M217.644 114.028H215.461V115.847H217.644V114.028Z" fill="#3F3D56"/>
<path d="M214.005 122.761V120.941H211.822V122.761H213.823H214.005Z" fill="#3F3D56"/>
<path d="M213.823 124.216H211.822V126.035H214.005V124.216H213.823Z" fill="#3F3D56"/>
<path d="M217.644 120.941H215.461V122.761H217.644V120.941Z" fill="#3F3D56"/>
<path d="M217.644 124.216H215.461V126.035H217.644V124.216Z" fill="#3F3D56"/>
<path d="M202.725 92.1954H181.62V96.5618H202.725V92.1954Z" fill="#3F3D56"/>
<path d="M202.725 100.928H181.62V105.295H202.725V100.928Z" fill="#3F3D56"/>
<path d="M202.725 109.661H181.62V114.028H202.725V109.661Z" fill="#3F3D56"/>
<path d="M202.725 118.394H181.62V122.761H202.725V118.394Z" fill="#3F3D56"/>
<path d="M238.658 91.2858L236.839 89.8301L247.027 80.7333H272.862V88.7385L256.124 100.019L238.658 91.2858Z" fill="#3F3D56"/>
<path d="M277.573 85.8362V80.9151H274.143V82.1203L272.862 80.7333L264.493 89.8301L261.219 92.0135L256.141 129.112L263.798 136.77H281.595V90.194L277.573 85.8362Z" fill="#CCCCCC"/>
<path d="M264.493 89.8302H236.839V136.77H264.493V89.8302Z" fill="#F2F2F2"/>
<path d="M252.667 125.308H247.573V136.77H252.667V125.308Z" fill="#CCCCCC"/>
<path d="M242.115 128.583V126.763H239.932V128.583H241.933H242.115Z" fill="#3F3D56"/>
<path d="M241.933 130.038H239.932V131.858H242.115V130.038H241.933Z" fill="#3F3D56"/>
<path d="M245.754 126.763H243.571V128.583H245.754V126.763Z" fill="#3F3D56"/>
<path d="M245.754 130.038H243.571V131.857H245.754V130.038Z" fill="#3F3D56"/>
<path d="M257.034 128.583V126.763H254.851V128.583H256.852H257.034Z" fill="#3F3D56"/>
<path d="M256.852 130.038H254.851V131.858H257.034V130.038H256.852Z" fill="#3F3D56"/>
<path d="M260.673 126.763H258.489V128.583H260.673V126.763Z" fill="#3F3D56"/>
<path d="M260.673 130.038H258.489V131.857H260.673V130.038Z" fill="#3F3D56"/>
<path d="M272.316 92.1953V90.376H270.133V92.1953H272.135H272.316Z" fill="#3F3D56"/>
<path d="M272.135 93.6509H270.133V95.4702H272.316V93.6509H272.135Z" fill="#3F3D56"/>
<path d="M275.955 90.376H273.772V92.1954H275.955V90.376Z" fill="#3F3D56"/>
<path d="M275.955 93.6509H273.772V95.4702H275.955V93.6509Z" fill="#3F3D56"/>
<path d="M272.316 102.384V100.564H270.133V102.384H272.135H272.316Z" fill="#3F3D56"/>
<path d="M272.135 103.839H270.133V105.659H272.316V103.839H272.135Z" fill="#3F3D56"/>
<path d="M275.955 100.564H273.772V102.384H275.955V100.564Z" fill="#3F3D56"/>
<path d="M275.955 103.839H273.772V105.659H275.955V103.839Z" fill="#3F3D56"/>
<path d="M272.316 112.572V110.753H270.133V112.572H272.135H272.316Z" fill="#3F3D56"/>
<path d="M272.135 114.028H270.133V115.847H272.316V114.028H272.135Z" fill="#3F3D56"/>
<path d="M275.955 110.753H273.772V112.572H275.955V110.753Z" fill="#3F3D56"/>
<path d="M275.955 114.028H273.772V115.847H275.955V114.028Z" fill="#3F3D56"/>
<path d="M272.316 122.761V120.941H270.133V122.761H272.135H272.316Z" fill="#3F3D56"/>
<path d="M272.135 124.216H270.133V126.035H272.316V124.216H272.135Z" fill="#3F3D56"/>
<path d="M275.955 120.941H273.772V122.761H275.955V120.941Z" fill="#3F3D56"/>
<path d="M275.955 124.216H273.772V126.035H275.955V124.216Z" fill="#3F3D56"/>
<path d="M261.036 92.1954H239.932V96.5618H261.036V92.1954Z" fill="#3F3D56"/>
<path d="M261.036 100.928H239.932V105.295H261.036V100.928Z" fill="#3F3D56"/>
<path d="M261.036 109.661H239.932V114.028H261.036V109.661Z" fill="#3F3D56"/>
<path d="M261.036 118.394H239.932V122.761H261.036V118.394Z" fill="#3F3D56"/>
<path d="M300 136.588H0V137.116H300V136.588Z" fill="#3F3D56"/>
<path d="M67.0185 115.744H66.4908V136.588H67.0185V115.744Z" fill="#3F3D56"/>
<path d="M71.8886 118.4C71.9221 125.689 66.7941 131.621 66.7941 131.621C66.7941 131.621 61.6117 125.736 61.5781 118.448C61.5445 111.159 66.6725 105.226 66.6725 105.226C66.6725 105.226 71.855 111.111 71.8886 118.4Z" fill="#6C63FF"/>
<path d="M119.789 115.744H119.261V136.588H119.789V115.744Z" fill="#3F3D56"/>
<path d="M124.659 118.4C124.693 125.689 119.565 131.621 119.565 131.621C119.565 131.621 114.382 125.736 114.349 118.448C114.315 111.159 119.443 105.226 119.443 105.226C119.443 105.226 124.625 111.111 124.659 118.4Z" fill="#6C63FF"/>
<path d="M225.066 115.744H224.538V136.588H225.066V115.744Z" fill="#3F3D56"/>
<path d="M229.936 118.4C229.97 125.689 224.842 131.621 224.842 131.621C224.842 131.621 219.659 125.736 219.626 118.448C219.592 111.159 224.72 105.226 224.72 105.226C224.72 105.226 229.902 111.111 229.936 118.4Z" fill="#6C63FF"/>
<path d="M155.013 45.8211C160.551 45.8211 165.04 44.8111 165.04 43.5652C165.04 42.3193 160.551 41.3092 155.013 41.3092C149.476 41.3092 144.987 42.3193 144.987 43.5652C144.987 44.8111 149.476 45.8211 155.013 45.8211Z" fill="#6C63FF"/>
<path d="M166.359 12.0349C166.359 18.4466 154.749 36.5731 154.749 36.5731C154.749 36.5731 143.14 18.4466 143.14 12.0349C143.14 8.95582 144.363 6.0029 146.54 3.8257C148.717 1.64849 151.67 0.425354 154.749 0.425354C157.828 0.425354 160.781 1.64849 162.958 3.8257C165.136 6.0029 166.359 8.95582 166.359 12.0349Z" fill="#6C63FF"/>
<path d="M154.749 18.6312C158.392 18.6312 161.346 15.6779 161.346 12.0349C161.346 8.39181 158.392 5.43855 154.749 5.43855C151.106 5.43855 148.153 8.39181 148.153 12.0349C148.153 15.6779 151.106 18.6312 154.749 18.6312Z" fill="#F2F2F2"/>
</g>
<path d="M243.333 191.592C241.036 191.592 239.167 193.461 239.167 195.759C239.167 198.056 241.036 199.925 243.333 199.925C245.631 199.925 247.5 198.056 247.5 195.759C247.5 193.461 245.631 191.592 243.333 191.592ZM243.333 198.259C241.955 198.259 240.833 197.137 240.833 195.759C240.833 194.38 241.955 193.259 243.333 193.259C244.712 193.259 245.833 194.38 245.833 195.759C245.833 197.137 244.712 198.259 243.333 198.259Z" fill="black"/>
<path d="M216.667 191.592C214.369 191.592 212.5 193.461 212.5 195.759C212.5 198.056 214.369 199.925 216.667 199.925C218.964 199.925 220.833 198.056 220.833 195.759C220.833 193.461 218.964 191.592 216.667 191.592ZM216.667 198.259C215.288 198.259 214.167 197.137 214.167 195.759C214.167 194.38 215.288 193.259 216.667 193.259C218.045 193.259 219.167 194.38 219.167 195.759C219.167 197.137 218.045 198.259 216.667 198.259Z" fill="black"/>
<path d="M254.756 191.003L254.167 190.414V189.925V189.092V187.425V186.592V175.759C254.167 175.299 253.794 174.925 253.333 174.925H215.833C215.562 174.925 215.307 175.058 215.151 175.281L209.383 183.521C208.418 184.321 207.503 185.269 206.837 186.592L206.208 188.259C206.037 188.897 205.908 189.595 205.853 190.394L205.244 191.003C205.088 191.159 205 191.371 205 191.592V193.259C205 193.48 205.088 193.692 205.244 193.848L205.833 194.437V195.759C205.833 196.219 206.206 196.592 206.667 196.592H210C210.461 196.592 210.833 196.219 210.833 195.759C210.833 192.542 213.451 189.925 216.667 189.925C219.882 189.925 222.5 192.542 222.5 195.759C222.5 196.219 222.872 196.592 223.333 196.592H236.667C237.127 196.592 237.5 196.219 237.5 195.759C237.5 192.542 240.117 189.925 243.333 189.925C246.549 189.925 249.166 192.542 249.166 195.759C249.166 196.219 249.539 196.592 250 196.592H253.333C253.794 196.592 254.166 196.219 254.166 195.759V194.437L254.755 193.848C254.912 193.692 255 193.48 255 193.259V191.592C255 191.371 254.912 191.159 254.756 191.003ZM223.333 182.425C223.333 182.885 222.961 183.259 222.5 183.259H213.333C213.026 183.259 212.743 183.09 212.598 182.819C212.453 182.548 212.47 182.219 212.64 181.964L215.973 176.964C216.128 176.731 216.388 176.592 216.667 176.592H222.5C222.961 176.592 223.333 176.965 223.333 177.425V182.425Z" fill="#6C63FF"/>
<path d="M97.5223 188.44C97.1548 187.803 96.4698 187.407 95.7346 187.407H86.0937V195.243C86.1815 195.228 86.2713 195.219 86.3633 195.219H101.432L97.5223 188.44Z" fill="#6C63FF"/>
<path d="M103.08 205.123V198.459H86.3633C86.2713 198.459 86.1815 198.45 86.0937 198.435V205.068H83.258V182.144H37.8324V205.068H37.4306C36.0883 205.068 35 206.156 35 207.498C35 208.841 36.0883 209.929 37.4306 209.929H37.6141H42.4687C42.6121 206.23 45.6645 203.264 49.3981 203.264C53.1318 203.264 56.1844 206.23 56.3276 209.929H83.4764H87.5201C87.6635 206.23 90.7159 203.264 94.4497 203.264C98.1833 203.264 101.236 206.23 101.379 209.929H102.569C103.912 209.929 105 208.841 105 207.498C105 206.331 104.177 205.357 103.08 205.123Z" fill="#6C63FF"/>
<path d="M49.3981 205.695C46.9137 205.695 44.8921 207.716 44.8921 210.201C44.8921 212.685 46.9135 214.707 49.3981 214.707C51.8827 214.707 53.9041 212.685 53.9041 210.201C53.9041 207.716 51.8826 205.695 49.3981 205.695Z" fill="black"/>
<path d="M94.4498 205.695C91.9654 205.695 89.9438 207.716 89.9438 210.201C89.9438 212.685 91.9652 214.707 94.4498 214.707C96.9343 214.707 98.9558 212.685 98.9558 210.201C98.9557 207.716 96.9343 205.695 94.4498 205.695Z" fill="black"/>
<path d="M26 149.425H57V172.047H56.9812V176.55L52.4367 172.047H26V149.425Z" fill="#6C63FF"/>
<path d="M40.7379 166.475L36.85 161.171L39.111 159.305L40.9518 161.816L47.1705 154.85L49.25 156.941L40.7379 166.475Z" fill="white"/>
<path d="M283 143.425H252V166.047H252.019V170.55L256.563 166.047H283V143.425Z" fill="#6C63FF"/>
<path d="M263.638 160.475L259.75 155.171L262.011 153.305L263.852 155.816L270.07 148.85L272.15 150.941L263.638 160.475Z" fill="white"/>
<path d="M175.444 203.425H124.189V205.451H175.444V203.425Z" fill="#E6E6E6"/>
<path d="M268.91 203.425H217.378V205.451H268.91V203.425Z" fill="#E6E6E6"/>
<path d="M82.3215 203.425H31V205.451H82.3215V203.425Z" fill="#E6E6E6"/>
<defs>
<clipPath id="clip0">
<rect width="300" height="136.69" fill="white" transform="translate(0 0.425354)"/>
</clipPath>
</defs>
</svg>
