<svg width="270" height="154" viewBox="0 0 270 154" fill="none" xmlns="http://www.w3.org/2000/svg">
<ellipse cx="185.069" cy="151.589" rx="84.1221" ry="2.05405" fill="#777E96"/>
<ellipse cx="131.94" cy="135.406" rx="16.5753" ry="16.5939" fill="#071440"/>
<rect x="100.778" width="141.222" height="132.087" fill="#EDEDF9"/>
<rect x="29.8357" width="70.9425" height="142.707" fill="#071440"/>
<path d="M29.8357 0H100.778V57.7467H63.3179L29.8357 0Z" fill="#060F2F"/>
<rect x="100.778" y="128.105" width="141.222" height="3.98253" fill="#071440"/>
<rect x="100.778" width="29.8356" height="132.087" fill="#7570D4"/>
<rect width="29.8356" height="132.087" fill="#7570D4"/>
<rect x="33.1507" y="132.087" width="9.94521" height="6.63754" fill="#EDEDF9"/>
<rect x="86.1918" y="132.087" width="9.94521" height="6.63754" fill="#EDEDF9"/>
<rect x="51.715" y="99.5633" width="24.5315" height="28.5415" fill="#E6E8EC"/>
<rect x="76.2466" y="99.5633" width="24.5315" height="28.5415" fill="#3F496B"/>
<rect x="62.9863" y="74.3405" width="18.5644" height="24.559" fill="#E6E8EC"/>
<rect x="81.5508" y="74.3406" width="19.2274" height="24.5589" fill="#3F496B"/>
<rect x="62.9863" y="49.118" width="18.5644" height="24.559" fill="#E6E8EC"/>
<rect x="81.5508" y="49.118" width="19.2274" height="24.559" fill="#3F496B"/>
<path d="M147.189 128.105C147.189 121.506 152.538 116.157 159.137 116.157H210.162C216.76 116.157 222.11 121.506 222.11 128.105H147.189Z" fill="#071440"/>
<ellipse cx="167.079" cy="135.406" rx="16.5753" ry="16.5939" fill="#071440"/>
<ellipse cx="171.72" cy="135.406" rx="7.95615" ry="11.2838" fill="white"/>
<ellipse cx="203.545" cy="135.406" rx="16.5753" ry="16.5939" fill="#071440"/>
<ellipse cx="208.186" cy="135.406" rx="7.95617" ry="11.2838" fill="white"/>
</svg>
