<svg width="242" height="153" viewBox="0 0 242 153" fill="none" xmlns="http://www.w3.org/2000/svg">
<g clip-path="url(#clip0)">
<path d="M186.261 115.267C196.215 90.3398 193.204 62.506 180.366 41.1291L45.9771 59.7672L174.765 32.8832C120.486 -34.9132 14.8409 10.0553 25.0246 95.6532L186.261 115.267Z" fill="#E6E6E6"/>
<path d="M192.188 87.7123H20.9747V141.114H192.188V87.7123Z" fill="#6C63FF"/>
<path d="M68.7243 81.1999C70.2604 82.3948 70.8222 82.7806 71.1493 82.7316C86.9991 87.3547 73.1044 92.7726 65.4034 83.5759L68.7243 81.1999Z" fill="#FFB8B8"/>
<path d="M16.4235 130.043V140.897L24.2255 140.463L22.0584 129.175L16.4235 130.043Z" fill="#FFB8B8"/>
<path d="M59.7686 130.043V140.897L51.9663 140.463L54.1336 129.175L59.7686 130.043Z" fill="#FFB8B8"/>
<path d="M35.9287 74.0363L47.6319 73.6021C74.6297 101.952 64.4197 95.4857 63.6696 134.385L49.3657 130.043L52.3999 103.125C52.4014 103.124 53.2003 102.591 52.5363 102.578C48.3835 104.008 45.3534 86.3092 36.3622 88.3636C26.1306 87.8734 24.4649 103.076 20.3245 103.125L23.3587 130.043L9.05477 134.385C7.45325 91.6387 -0.395864 101.295 25.0925 73.6021L35.9287 74.0363Z" fill="#2F2E41"/>
<path d="M18.5907 137.424C18.5907 137.424 16.8569 133.95 14.6896 135.687C12.5224 137.424 7.32094 142.634 7.32094 142.634C7.32094 142.634 -5.24914 148.278 2.55298 151.751C10.3551 155.224 16.8569 146.975 16.8569 146.975C24.2883 145.423 28.5748 144.429 24.6338 136.31C22.3963 137.28 19.2299 138.402 18.5907 137.424Z" fill="#2F2E41"/>
<path d="M57.6013 137.424C57.6013 137.424 59.3351 133.95 61.5023 135.687C63.6696 137.424 68.871 142.634 68.871 142.634C68.871 142.634 81.4411 148.278 73.639 151.751C65.8369 155.224 59.3351 146.975 59.3351 146.975C51.9037 145.423 47.6172 144.429 51.5582 136.31C53.7957 137.28 56.962 138.402 57.6013 137.424Z" fill="#2F2E41"/>
<path d="M47.6319 24.9762C46.9872 35.7842 32.2607 34.8327 32.0277 24.9761C32.6723 14.1682 47.3988 15.1198 47.6319 24.9762Z" fill="#FFB8B8"/>
<path d="M36.3622 30.6203C40.1541 42.0995 31.2016 35.8499 43.7309 44.9476L48.4988 35.3961C48.4988 35.3961 45.0312 34.0936 45.4647 29.3178L36.3622 30.6203Z" fill="#FFB8B8"/>
<path d="M59.7686 37.1327L46.8475 34.1786C47.211 41.9823 38.8966 40.4117 37.4458 36.4863L25.0925 43.6451C30.2775 62.9881 28.9635 63.7862 22.0583 76.2071C19.423 78.6175 23.3641 79.999 26.7951 78.68C29.412 77.0622 30.741 75.6246 33.545 75.9905C46.7947 78.7538 57.8249 79.4061 59.5705 78.3263C60.1952 77.4309 59.5525 37.2881 59.7686 37.1327Z" fill="#575A89"/>
<path d="M56.301 38.001C56.7344 38.001 58.9672 36.9495 58.9672 36.9495C65.4632 36.8398 69.8224 80.607 70.1714 81.8512L65.8369 84.8903L58.9017 67.0897L56.301 38.001Z" fill="#575A89"/>
<path d="M25.9594 88.7977C26.181 90.4363 26.5581 108.837 33.139 100.242C34.0023 93.9707 31.0669 92.0986 30.2939 87.9294L25.9594 88.7977Z" fill="#FFB8B8"/>
<path d="M27.6932 43.6451L26.3651 42.9076C22.8045 42.7904 23.9266 52.2309 22.4202 59.1444C21.1896 67.1986 21.54 76.0795 22.9838 87.9528C23.1101 92.3099 30.9013 89.565 32.0277 89.2319C32.0277 89.2319 29.427 71.4313 30.7273 68.3922C32.0277 65.3531 27.6932 43.6451 27.6932 43.6451Z" fill="#575A89"/>
<path d="M47.2909 17.4004C46.0872 15.4425 44.2031 13.9998 42.0012 13.3498L40.3839 14.6458L41.0126 13.1342C40.4839 13.0534 39.9487 13.0224 39.4142 13.0417L37.959 14.9156L38.5613 13.1059C32.3172 13.7774 28.6229 20.9571 31.8645 25.9819C32.3646 24.4427 32.9715 22.9984 33.4715 21.4592C33.8645 21.5129 34.2628 21.5148 34.6563 21.465L35.2647 20.0432L35.4347 21.4049C37.3203 21.2403 40.1172 20.8791 41.9048 20.548L41.731 19.5034L42.771 20.3715C43.3187 20.2452 43.6439 20.1307 43.617 20.0432C44.9465 22.19 46.2639 23.5612 47.5933 25.7081C48.098 22.6799 48.989 20.1628 47.2909 17.4004Z" fill="#2F2E41"/>
<path d="M181.94 94.1542H144.128V112.12H181.94V94.1542Z" fill="white"/>
<path d="M174.79 97.9173H151.278V100.072H174.79V97.9173Z" fill="#E6E6E6"/>
<path d="M174.79 102.06H151.278V104.214H174.79V102.06Z" fill="#E6E6E6"/>
<path d="M174.79 106.203H151.278V108.357H174.79V106.203Z" fill="#E6E6E6"/>
<path d="M111.2 98.4218L109.97 96.2881L108.74 94.1542L107.51 96.2881L106.28 98.4218H107.601V104.601H109.878V98.4218H111.2Z" fill="white"/>
<path d="M194.541 142.388C200.134 142.388 204.668 137.846 204.668 132.244C204.668 126.641 200.134 122.099 194.541 122.099C188.947 122.099 184.413 126.641 184.413 132.244C184.413 137.846 188.947 142.388 194.541 142.388Z" fill="#3F3D56"/>
<path d="M196.382 136.739C198.861 136.739 200.87 134.726 200.87 132.244C200.87 129.761 198.861 127.748 196.382 127.748C193.903 127.748 191.894 129.761 191.894 132.244C191.894 134.726 193.903 136.739 196.382 136.739Z" fill="#E6E6E6"/>
<path d="M188.153 139.333L210.25 148.555L209.559 150.745L196.842 149.304L175.321 139.736L187.29 141.12L188.153 139.333Z" fill="#3F3D56"/>
<path d="M207.685 148.139L235.167 57.8425L241.86 45.9381L241.883 45.8232C241.905 45.7182 242.396 43.2299 241.188 41.428C240.883 40.9801 240.489 40.5998 240.031 40.3109C239.574 40.022 239.061 39.8307 238.526 39.7489C234.833 39.0552 226.569 38.7134 226.22 38.6992L226.154 38.6965L226.088 38.7054C225.862 38.7363 220.581 39.5095 219.388 44.1284L213.642 54.602L213.62 54.6765L187.61 140.325L189.042 140.761L215.028 55.1872L220.793 44.6783L220.816 44.5817C221.661 41.1059 225.696 40.2927 226.233 40.1997C227.077 40.2357 234.844 40.5819 238.25 41.2218C238.589 41.268 238.914 41.384 239.205 41.5625C239.496 41.741 239.747 41.9781 239.942 42.2588C240.687 43.3636 240.501 44.9902 240.435 45.4179L233.784 57.2493L233.76 57.3274L206.254 147.702L207.685 148.139Z" fill="#3F3D56"/>
<path d="M211.704 63.2616L211.438 64.7363L231.286 68.3269L231.552 66.8522L211.704 63.2616Z" fill="#3F3D56"/>
<path d="M207.997 75.5258L207.698 76.9941L227.404 81.0226L227.703 79.5543L207.997 75.5258Z" fill="#3F3D56"/>
<path d="M201.396 97.4597L200.985 98.9004L220.224 104.415L220.636 102.974L201.396 97.4597Z" fill="#3F3D56"/>
<path d="M214.408 139.973L214.953 138.577L196.279 131.253L195.362 121.308L212.792 127.829L218.438 136.012L219.669 135.161L213.755 126.589L193.653 119.069L194.874 132.312L214.408 139.973Z" fill="#3F3D56"/>
<path d="M220.895 152.071C226.489 152.071 231.023 147.529 231.023 141.927C231.023 136.324 226.489 131.782 220.895 131.782C215.302 131.782 210.768 136.324 210.768 141.927C210.768 147.529 215.302 152.071 220.895 152.071Z" fill="#3F3D56"/>
<path d="M223.542 146.883C226.021 146.883 228.031 144.871 228.031 142.388C228.031 139.905 226.021 137.892 223.542 137.892C221.063 137.892 219.054 139.905 219.054 142.388C219.054 144.871 221.063 146.883 223.542 146.883Z" fill="#E6E6E6"/>
</g>
<defs>
<clipPath id="clip0">
<rect width="242" height="152.604" fill="white"/>
</clipPath>
</defs>
</svg>
