<svg width="50" height="50" viewBox="0 0 50 50" fill="none" xmlns="http://www.w3.org/2000/svg">
<g opacity="0.6">
<path d="M10.7588 22.2425C10.3528 22.2425 10.0237 22.5717 10.0237 22.9777C10.0237 23.4281 9.84283 23.846 9.51441 24.1547C9.18628 24.463 8.75494 24.6175 8.30445 24.5892C7.50865 24.5399 6.84664 23.8778 6.79723 23.0821C6.74869 22.2991 7.26363 21.5955 8.02164 21.4093C8.68257 21.2471 9.144 20.6517 9.144 19.9617V10.4294C9.144 10.0233 8.8149 9.69422 8.40884 9.69422C8.00279 9.69422 7.67369 10.0234 7.67369 10.4294V19.9617C7.67369 19.9741 7.6691 19.9821 7.67076 19.9815C6.22154 20.3376 5.23717 21.6798 5.32975 23.1732C5.42584 24.721 6.66549 25.9607 8.21334 26.0568C8.27984 26.061 8.34615 26.063 8.41207 26.063C9.20025 26.063 9.94302 25.7699 10.5213 25.2262C11.1395 24.6453 11.494 23.8257 11.494 22.9778C11.494 22.5715 11.1649 22.2425 10.7588 22.2425Z" fill="#82635A"/>
<path d="M7.35086 11.0231C6.59812 10.23 6.58475 8.96893 7.324 8.15614C7.69969 7.74315 8.21384 7.49921 8.77166 7.46932C9.28123 7.44198 9.78298 7.60038 10.1849 7.91522L27.7352 21.9902C28.5112 22.6125 28.6013 23.7604 27.932 24.4961L25.5694 27.0935C24.901 27.8283 23.7518 27.8481 23.0586 27.1369L7.35086 11.0231Z" fill="#FFB125"/>
<path d="M23.8267 21.4628C24.0334 21.3396 24.055 21.0492 23.8673 20.8986L9.21294 9.14608C9.11899 9.0742 9.00268 9.03465 8.88472 9.03465C8.87505 9.03465 8.86538 9.03485 8.85571 9.03543C8.7105 9.04325 8.58208 9.10409 8.48442 9.21141C8.29966 9.41453 8.30005 9.73924 8.48403 9.93846L21.4645 23.2545C21.6165 23.4105 21.8747 23.3888 21.9952 23.2074C22.4667 22.4977 23.0933 21.8998 23.8267 21.4628Z" fill="#FFBF14"/>
<path d="M22.6174 33.3283V26.3375C22.6174 24.076 24.4574 22.2361 26.7189 22.2361C28.9805 22.2361 30.8204 24.076 30.8204 26.3375V33.3283H22.6174Z" fill="#2C5871"/>
<path d="M14.1635 31.3212L14.0927 31.1577C13.538 29.6765 12.1223 28.6952 10.5407 28.6952H6.37489C4.79325 28.6952 3.37763 29.6766 2.82285 31.1577L2.75205 31.3212H0.723924C0.32412 31.3212 0 31.6454 0 32.0452V36.7424C0 36.823 0.00498046 36.9034 0.0147461 36.9833C0.104297 37.6015 0.634862 38.0769 1.27783 38.0769H47.5395C48.8649 38.0769 49.9395 37.0024 49.9395 35.6769V31.3213H14.1635V31.3212Z" fill="#45748C"/>
<path d="M47.5395 38.0768C48.865 38.0768 50 37.0023 50 35.6768V22.7272C50 22.2415 49.8086 21.7752 49.4671 21.4296L44.2084 16.106C43.8615 15.7548 43.3885 15.5572 42.8948 15.5572H33.4251C32.4738 15.5572 31.7026 16.3284 31.7026 17.2796V38.0769L47.5395 38.0768Z" fill="#3C6A7C"/>
<path d="M49.4672 21.4295L44.2084 16.1059C43.8615 15.7548 43.3885 15.5571 42.8948 15.5571H38.4512C38.9448 15.5571 39.4179 15.7548 39.7647 16.1059L45.0235 21.4295C45.3649 21.7752 45.5563 22.2414 45.5563 22.7271V35.6767C45.5563 37.0022 44.4214 38.0767 43.0959 38.0767H47.5396C48.8651 38.0767 50.0001 37.0022 50.0001 35.6767V22.7272C50 22.2414 49.8086 21.7753 49.4672 21.4295Z" fill="#305B68"/>
<path d="M34.8948 26.426V19.4291C34.8948 19.008 35.2362 18.6666 35.6573 18.6666H41.9994C42.2032 18.6666 42.3986 18.7482 42.5418 18.8932L46.5878 22.9892C46.7288 23.1319 46.8078 23.3245 46.8078 23.5251V26.4261C46.8078 26.8472 46.4664 27.1886 46.0453 27.1886H35.6573C35.2362 27.1885 34.8948 26.8471 34.8948 26.426Z" fill="#2DE8E8"/>
<path d="M41.3328 42.5332C44.0963 42.5332 46.3366 40.2929 46.3366 37.5293C46.3366 34.7657 44.0963 32.5254 41.3328 32.5254C38.5692 32.5254 36.3289 34.7657 36.3289 37.5293C36.3289 40.2929 38.5692 42.5332 41.3328 42.5332Z" fill="#1D4859"/>
<path d="M8.40917 42.5332C11.1727 42.5332 13.4131 40.2929 13.4131 37.5293C13.4131 34.7657 11.1727 32.5254 8.40917 32.5254C5.64559 32.5254 3.40527 34.7657 3.40527 37.5293C3.40527 40.2929 5.64559 42.5332 8.40917 42.5332Z" fill="#1D4859"/>
<path d="M8.40869 42.5338C11.1725 42.5338 13.4131 40.2933 13.4131 37.5294C13.4131 36.1475 12.8529 34.8964 11.9474 33.9908L4.87012 41.068C5.77568 41.9736 7.02675 42.5338 8.40869 42.5338Z" fill="#193D4B"/>
<path d="M8.40908 39.8359C9.68295 39.8359 10.7156 38.8032 10.7156 37.5293C10.7156 36.2555 9.68295 35.2228 8.40908 35.2228C7.13521 35.2228 6.10254 36.2555 6.10254 37.5293C6.10254 38.8032 7.13521 39.8359 8.40908 39.8359Z" fill="#E1EFFB"/>
<path d="M26.7186 27.7819C27.5641 27.7819 28.2495 27.0965 28.2495 26.251C28.2495 25.4056 27.5641 24.7202 26.7186 24.7202C25.8731 24.7202 25.1877 25.4056 25.1877 26.251C25.1877 27.0965 25.8731 27.7819 26.7186 27.7819Z" fill="#FF901D"/>
<path d="M41.333 42.5338C44.0969 42.5338 46.3374 40.2933 46.3374 37.5294C46.3374 36.1475 45.7772 34.8964 44.8717 33.9908L37.7944 41.068C38.7 41.9736 39.9511 42.5338 41.333 42.5338Z" fill="#193D4B"/>
<path d="M41.3329 39.8359C42.6068 39.8359 43.6394 38.8032 43.6394 37.5293C43.6394 36.2555 42.6068 35.2228 41.3329 35.2228C40.059 35.2228 39.0264 36.2555 39.0264 37.5293C39.0264 38.8032 40.059 39.8359 41.3329 39.8359Z" fill="#E1EFFB"/>
<path d="M29.2708 36.2119H22.3941H17.5377H15.6398C15.2353 36.2119 14.9075 35.8841 14.9075 35.4796V34.1183C14.9075 33.7138 15.2353 33.386 15.6398 33.386H29.2707C29.6752 33.386 30.0031 33.7138 30.0031 34.1183V35.4796C30.0032 35.8841 29.6753 36.2119 29.2708 36.2119Z" fill="#305B68"/>
<path d="M36.7668 28.8193H34.8948C34.4888 28.8193 34.1597 29.1485 34.1597 29.5544C34.1597 29.9604 34.4888 30.2896 34.8948 30.2896H36.7668C37.1728 30.2896 37.5019 29.9604 37.5019 29.5544C37.5019 29.1485 37.1728 28.8193 36.7668 28.8193Z" fill="#1D4859"/>
</g>
</svg>
