<svg width="58" height="26" viewBox="0 0 58 26" fill="none" xmlns="http://www.w3.org/2000/svg">
<path d="M57.626 17.4724V19.2776C57.626 20.7382 56.4409 21.9232 54.9803 21.9232H5.80117C2.65944 21.9232 0.192902 19.2638 0.413372 16.1358L1.36416 2.78347C1.4744 1.2126 2.78345 6.15584e-06 4.35432 6.15584e-06H34.9035C34.9035 6.15584e-06 39.6575 -0.055112 48.9587 10.2658L52.1693 10.8721C55.3386 11.4784 57.626 14.248 57.626 17.4724Z" fill="white"/>
<path d="M48.2421 19.0847H1.03346C0.771648 18.5886 0.578732 18.065 0.468494 17.5H57.626V19.2776C57.626 20.7382 56.4409 21.9232 54.9803 21.9232H48.2559V19.0847H48.2421Z" fill="#324A5E"/>
<path d="M42.2342 21.7854C42.2342 19.0571 44.4527 16.8386 47.1811 16.8386C49.9094 16.8386 52.1279 19.0571 52.1279 21.7854C52.1279 21.8406 52.1279 21.8819 52.1141 21.9232H42.248C42.248 21.8819 42.2342 21.8268 42.2342 21.7854Z" fill="#2B3B4E"/>
<path d="M47.1812 25.2165C45.2178 25.2165 43.6261 23.6249 43.6261 21.6614C43.6261 19.698 45.2178 18.1063 47.1812 18.1063C49.1446 18.1063 50.7363 19.698 50.7363 21.6614C50.7363 23.6249 49.1446 25.2165 47.1812 25.2165Z" fill="#324A5E"/>
<path d="M47.181 23.9626C45.9101 23.9626 44.8798 22.9323 44.8798 21.6614C44.8798 20.3905 45.9101 19.3602 47.181 19.3602C48.4519 19.3602 49.4822 20.3905 49.4822 21.6614C49.4822 22.9323 48.4519 23.9626 47.181 23.9626Z" fill="#ACB3BA"/>
<path d="M5.95274 21.7854C5.95274 19.0571 8.17124 16.8386 10.8996 16.8386C13.6279 16.8386 15.8464 19.0571 15.8464 21.7854C15.8464 21.8406 15.8464 21.8819 15.8327 21.9232H5.96651C5.95273 21.8819 5.95274 21.8268 5.95274 21.7854Z" fill="#2B3B4E"/>
<path d="M10.8995 25.2165C8.93604 25.2165 7.34435 23.6249 7.34435 21.6614C7.34435 19.698 8.93604 18.1063 10.8995 18.1063C12.8629 18.1063 14.4546 19.698 14.4546 21.6614C14.4546 23.6249 12.8629 25.2165 10.8995 25.2165Z" fill="#324A5E"/>
<path d="M10.8995 23.9626C9.6286 23.9626 8.59832 22.9323 8.59832 21.6614C8.59832 20.3905 9.6286 19.3602 10.8995 19.3602C12.1704 19.3602 13.2007 20.3905 13.2007 21.6614C13.2007 22.9323 12.1704 23.9626 10.8995 23.9626Z" fill="#ACB3BA"/>
<path d="M40.25 3.45868H41.7657C43.75 4.97443 46.1476 7.13781 48.9724 10.2658L47.1811 10.4587L40.25 3.45868Z" fill="#84DBFF"/>
<path d="M46.6299 12.1949C46.6299 12.1949 41.4212 3.55513 35.3582 3.89962H34.4626C34.063 3.89962 33.746 4.21655 33.746 4.61616V6.71065C33.746 8.52955 35.0551 10.1004 36.8464 10.4311L46.6299 12.1949Z" fill="#54C0EB"/>
<path d="M31.4034 4.62992L30.5078 10.5413C30.4389 11.0236 30.0117 11.3957 29.5157 11.3957H3.29321C2.67313 11.3957 2.20463 10.8307 2.31486 10.2244L3.27943 4.69882C3.36211 4.23032 3.77549 3.88583 4.244 3.87205L30.3975 3.47244C31.0176 3.47244 31.4999 4.02363 31.4034 4.62992Z" fill="#CED5E0"/>
<path d="M0.17909 17.2106H1.76373C1.86019 17.2106 1.94287 17.128 1.94287 17.0315V11.5886C1.94287 11.4921 1.86019 11.4095 1.76373 11.4095H0.17909C0.0826335 11.4095 -4.19617e-05 11.4921 -4.19617e-05 11.5886V17.0177C-4.19617e-05 17.128 0.0826335 17.2106 0.17909 17.2106Z" fill="#FF7058"/>
<path d="M54.4981 13.3799C54.4981 13.3799 55.4627 15.3366 55.2009 16.8386H56.5513C56.5513 16.8386 56.4824 13.4764 54.4981 13.3799Z" fill="white"/>
</svg>
